Coordinates
version=1
nRows=29
nColumns=24
inDegrees=yes

Units are S.I. units (second, meters, Newtons, ...)
Angles are in degrees.

endheader
time	pelvis_tilt	pelvis_list	pelvis_rotation	pelvis_tx	pelvis_ty	pelvis_tz	hip_flexion_r	hip_adduction_r	hip_rotation_r	knee_angle_r	ankle_angle_r	subtalar_angle_r	mtp_angle_r	hip_flexion_l	hip_adduction_l	hip_rotation_l	knee_angle_l	ankle_angle_l	subtalar_angle_l	mtp_angle_l	lumbar_extension	lumbar_bending	lumbar_rotation
      1.62500000	      7.59978672	     -3.20062114	     10.91887556	     -0.12834782	      1.00816121	     -0.00321913	     13.47059860	     -2.89784872	    -29.05086547	    -21.40796746	     -0.01244611	     -0.41999160	     14.36619772	     -6.84571400	     -5.22827198	    -15.20862825	    -18.43870980	      6.41602389	      0.44051093	      4.68819346	    -15.04209282	     -4.67559259	    -32.92695240
      1.63000000	      7.53771869	     -3.01273059	     11.12183004	     -0.12254918	      1.00706566	     -0.00333360	     13.66554294	     -3.01428306	    -29.61601588	    -19.82090656	     -0.16562832	      0.38005354	     14.24429285	     -7.06468772	     -5.13058805	    -15.05023474	    -18.61160482	      6.71647651	      0.46510500	      4.79747062	    -15.04476760	     -4.82223974	    -33.14527571
      1.63500000	      7.46501314	     -2.82685340	     11.31834710	     -0.11675832	      1.00591029	     -0.00340335	     13.86829189	     -3.12043082	    -30.18308415	    -18.24959304	     -0.30284439	      1.28091880	     14.09317172	     -7.27184978	     -5.03768454	    -14.89946646	    -18.78755338	      7.01647346	      0.49542521	      4.94328628	    -15.04146222	     -4.96901324	    -33.34124167
      1.64000000	      7.38787761	     -2.62788870	     11.50872897	     -0.11096118	      1.00471205	     -0.00345007	     14.06936143	     -3.23421318	    -30.75356410	    -16.70836775	     -0.38986906	      2.29064947	     13.89566414	     -7.47232787	     -4.93293167	    -14.75048332	    -18.98010616	      7.31149572	      0.51608860	      5.13457757	    -15.03856097	     -5.13166217	    -33.55622247
      1.64500000	      7.29483465	     -2.43177645	     11.69482692	     -0.10516167	      1.00345502	     -0.00345551	     14.28498427	     -3.33927326	    -31.32338668	    -15.19667801	     -0.45741976	      3.39365411	     13.65445707	     -7.65766542	     -4.83205807	    -14.60103838	    -19.17008947	      7.60360331	      0.54174156	      5.36543656	    -15.02111799	     -5.29551033	    -33.75737646
      1.65000000	      7.17582646	     -2.24092293	     11.86855605	     -0.09938710	      1.00212711	     -0.00344163	     14.53741958	     -3.43846623	    -31.86570084	    -13.75957674	     -0.29448611	      4.64032337	     11.70583816	     -7.81480155	     -4.72469448	    -14.42715277	    -19.34972362	      7.75153285	      0.40102674	      6.64425396	    -14.97672091	     -5.45510976	    -33.93419250
      1.65500000	      7.06903675	     -2.04469290	     12.03634291	     -0.09357502	      1.00079123	     -0.00334086	     14.76274797	     -3.52500963	    -32.39602361	    -12.31857538	     -0.36849921	      5.80758113	     11.64536470	     -7.98189823	     -4.63670472	    -14.32200942	    -19.56555993	      8.06413065	      0.54604282	      6.72123056	    -14.95168097	     -5.63073807	    -34.12797279
      1.66000000	      6.92991446	     -1.86057818	     12.21082852	     -0.08775016	      0.99939340	     -0.00324504	     15.02472008	     -3.60838436	    -32.94036635	    -10.94179109	     -0.43638096	      7.02199035	     11.54248351	     -8.11636604	     -4.54999152	    -14.16092223	    -19.76812211	      8.35869538	      0.59938302	      6.83880080	    -14.88557085	     -5.79516115	    -34.31340703
      1.66500000	      6.81738718	     -1.66054571	     12.39251869	     -0.08193908	      0.99800755	     -0.00314056	     15.25380359	     -3.70288627	    -33.46835823	     -9.63266833	     -0.45566866	      8.24751918	     11.34779566	     -8.27083103	     -4.45772852	    -14.00541002	    -19.99641281	      8.65726704	      0.62426631	      7.02492922	    -14.86485832	     -5.97032037	    -34.53718603
      1.67000000	      6.68551367	     -1.47426978	     12.56579627	     -0.07613046	      0.99657352	     -0.00300030	     15.50960159	     -3.78445827	    -33.95351476	     -8.39741737	     -0.47355418	      9.42171144	     11.10349385	     -8.40047853	     -4.37909293	    -13.84653065	    -20.23072348	      8.93990221	      0.66560282	      7.25156036	    -14.82141702	     -6.13152981	    -34.72714332
      1.67500000	      6.55992664	     -1.29115074	     12.74533992	     -0.07027664	      0.99515302	     -0.00287021	     15.75591454	     -3.86793114	    -34.42884964	     -7.25197323	     -0.46697077	     10.55652353	     10.72342839	     -8.54861768	     -4.30364373	    -13.66379627	    -20.44187987	      9.20938692	      0.68516108	      7.56776600	    -14.78180696	     -6.28621650	    -34.93973617
      1.68000000	      6.39483580	     -1.13444769	     12.91603800	     -0.06445539	      0.99367703	     -0.00269811	     16.06100222	     -3.93729371	    -34.81613058	     -6.23392682	     -0.23642764	     11.60987767	      8.47134656	     -8.63435565	     -4.24860372	    -13.46622534	    -20.67100300	      9.29976255	      0.56313457	      9.00789728	    -14.69550523	     -6.41806127	    -35.09615816
      1.68500000	      6.23659239	     -0.97713235	     13.08231199	     -0.05856148	      0.99220017	     -0.00249337	     16.35683416	     -4.01247862	    -35.16918570	     -5.29812129	     -0.26332826	     12.46210349	      8.39844993	     -8.73490686	     -4.20861416	    -13.30970121	    -20.91577557	      9.57805204	      0.72764082	      9.07756954	    -14.61357594	     -6.55365570	    -35.27407297
      1.69000000	      6.13631586	     -0.81741344	     13.27502468	     -0.05264549	      0.99082092	     -0.00235880	     16.58591951	     -4.10105044	    -35.54876983	     -4.48854478	     -0.24050505	     13.26343489	      8.21961584	     -8.90008641	     -4.17466010	    -13.10057738	    -21.14678508	      9.84322421	      0.73877187	      9.22920546	    -14.60208100	     -6.66585605	    -35.48752697
      1.69500000	      5.98202534	     -0.68966715	     13.46902952	     -0.04671320	      0.98937536	     -0.00220451	     16.88494778	     -4.18417657	    -35.84068939	     -3.81237325	     -0.23231779	     13.82182871	      8.06980711	     -8.98812788	     -4.17000548	    -12.88067899	    -21.40960500	     10.07459550	      0.81329969	      9.39565456	    -14.51741808	     -6.75047477	    -35.66289342
      1.70000000	      5.88982184	     -0.55245321	     13.64906339	     -0.04071807	      0.98803280	     -0.00205693	     17.11994095	     -4.28095231	    -36.09750435	     -3.30237898	      0.00372792	     14.37933465	      6.66892559	     -9.16292123	     -4.16284784	    -12.67262926	    -21.63249587	     10.15322122	      0.72042695	     10.68294237	    -14.50074051	     -6.83359094	    -35.84632493
      1.70500000	      5.79283218	     -0.44256084	     13.86311132	     -0.03468901	      0.98670228	     -0.00194301	     17.35769446	     -4.37344733	    -36.31227827	     -2.90910444	      0.07532784	     14.57429245	      6.62615154	     -9.31696996	     -4.19830944	    -12.43053749	    -21.88326575	     10.37556288	      0.81137570	     10.75657923	    -14.47336435	     -6.87303270	    -36.04430122
      1.71000000	      5.71907515	     -0.33463583	     14.06370496	     -0.02858582	      0.98542314	     -0.00184061	     17.58033929	     -4.48375509	    -36.52620844	     -2.69634487	      0.24907719	     14.80090410	      6.21426071	     -9.50791733	     -4.23644187	    -12.19459822	    -22.11407975	     10.51113255	      0.80352298	     11.41581567	    -14.46172270	     -6.90504996	    -36.22567505
      1.71500000	      5.65803676	     -0.24735389	     14.28120061	     -0.02242911	      0.98419288	     -0.00174328	     17.77991116	     -4.58414466	    -36.65716277	     -2.59247295	      0.34313696	     14.70653768	      6.20587547	     -9.70760449	     -4.30893594	    -11.94093704	    -22.35008618	     10.69294538	      0.87482925	     11.49878302	    -14.45742962	     -6.90760338	    -36.43030007
      1.72000000	      5.61454086	     -0.17134737	     14.50896207	     -0.01621383	      0.98300456	     -0.00168419	     17.96043071	     -4.69423994	    -36.78036271	     -2.63944509	      0.48219812	     14.54706381	      6.21080078	     -9.92262282	     -4.40146624	    -11.67171630	    -22.59121216	     10.85238690	      0.93432313	     11.63088602	    -14.46208752	     -6.88080261	    -36.61641468
      1.72500000	      5.59239452	     -0.10489679	     14.72929398	     -0.00991597	      0.98186542	     -0.00164013	     18.11458660	     -4.80483908	    -36.85721451	     -2.81850691	      0.64004468	     14.28984476	      6.22900366	    -10.17196687	     -4.50770556	    -11.39455026	    -22.81372662	     10.99890157	      0.99748888	     11.78189822	    -14.47858426	     -6.83500440	    -36.80919344
      1.73000000	      5.57200152	     -0.04716107	     14.94745059	     -0.00357281	      0.98074454	     -0.00155537	     18.26172797	     -4.91292905	    -36.85972305	     -3.10145622	      0.72149726	     13.82590438	      6.48202309	    -10.41502671	     -4.63250580	    -11.13551985	    -23.03434167	     10.90649759	      0.93515611	     13.55054719	    -14.49045637	     -6.78299279	    -36.98047522
      1.73500000	      5.57926840	     -0.00230011	     15.18248491	      0.00284626	      0.97968451	     -0.00148759	     18.36508774	     -5.01545464	    -36.85001624	     -3.48730843	      0.84819705	     13.35041990	      6.52811357	    -10.68212833	     -4.78764296	    -10.86141302	    -23.27679465	     11.00353127	      1.00906329	     13.65303216	    -14.52356300	     -6.70428579	    -37.17025646
      1.74000000	      5.58142285	      0.05016304	     15.34227152	      0.00934121	      0.97860685	     -0.00133677	     18.47715353	     -5.11056048	    -36.63610439	     -3.95976106	      0.94769439	     12.66275381	      6.75600416	    -10.97232534	     -4.91964021	    -10.65987636	    -23.49165379	     11.05484932	      1.05905093	     14.10923866	    -14.53564978	     -6.64125803	    -37.27914861
      1.74500000	      5.59607542	      0.07472395	     15.57978874	      0.01589155	      0.97758902	     -0.00126462	     18.54303602	     -5.19603086	    -36.54242571	     -4.47455711	      0.95279158	     12.05720464	      6.89783558	    -11.24627502	     -5.10525226	    -10.36702307	    -23.73069613	     11.09746658	      1.13014127	     14.40023316	    -14.55440048	     -6.52879474	    -37.46183693
      1.75000000	      5.62733884	      0.12361687	     15.75577348	      0.02250750	      0.97658389	     -0.00108335	     18.58759723	     -5.28637595	    -36.29652571	     -5.05045895	      0.87111046	     11.40374137	      7.95942384	    -11.55510797	     -5.26573616	    -10.15335548	    -23.95397116	     10.93199581	      1.08951873	     16.02965637	    -14.58966058	     -6.45534108	    -37.58623945
      1.75500000	      5.64791775	      0.14842399	     15.93520960	      0.02918987	      0.97559752	     -0.00088225	     18.62558885	     -5.34638114	    -36.02419621	     -5.65053303	      0.80216959	     10.73436236	      8.04787565	    -11.84065665	     -5.45532136	     -9.93887003	    -24.20842989	     10.94960720	      1.17728218	     16.13266735	    -14.59721726	     -6.35694519	    -37.71517146
      1.76000000	      5.66561714	      0.17806210	     16.07191131	      0.03591021	      0.97461105	     -0.00059157	     18.66076308	     -5.39331225	    -35.63914746	     -6.27215198	      0.65431668	     10.02702824	      8.22427428	    -12.12546889	     -5.63545778	     -9.76983724	    -24.46958978	     10.92089159	      1.24913040	     16.38711032	    -14.59711457	     -6.27388255	    -37.79475688
      1.76500000	      5.69675466	      0.21898187	     16.20463739	      0.04269361	      0.97367381	     -0.00028274	     18.65777355	     -5.44255313	    -35.24536162	     -6.88113204	      0.29374188	      9.36554777	      9.62523490	    -12.42395720	     -5.81076122	     -9.60234521	    -24.72493116	     10.67873096	      1.20149899	     18.00316231	    -14.60999381	     -6.19858409	    -37.88138263
